<?xml version="1.0" encoding="utf-8"?>
<!-- Generator: Adobe Illustrator 22.1.0, SVG Export Plug-In . SVG Version: 6.00 Build 0)  -->
<svg version="1.1" id="Layer_1" xmlns="http://www.w3.org/2000/svg" xmlns:xlink="http://www.w3.org/1999/xlink" x="0px" y="0px"
	 viewBox="0 0 163 163" style="enable-background:new 0 0 163 163;" xml:space="preserve">
<style type="text/css">
	.st0{fill:#1A6BAB;}
	.st1{fill:#D0021B;}
</style>
<path class="st0" d="M81.5,162.5c-44.7,0-81-36.3-81-81c0-44.7,36.3-81,81-81c44.7,0,81,36.3,81,81
	C162.5,126.2,126.2,162.5,81.5,162.5z M81.5,5.5c-41.9,0-76,34.1-76,76c0,41.9,34.1,76,76,76c41.9,0,76-34.1,76-76
	C157.5,39.6,123.4,5.5,81.5,5.5z"/>
<path class="st1" d="M151.5,122.2l-4.3-2.5c6.7-11.5,10.3-24.8,10.3-38.2c0-41.9-34.1-76-76-76v-5c44.7,0,81,36.3,81,81
	C162.5,95.8,158.7,109.9,151.5,122.2z"/>
</svg>
