<?xml version="1.0" encoding="utf-8"?>
<!DOCTYPE svg PUBLIC "-//W3C//DTD SVG 1.1//EN" "http://www.w3.org/Graphics/SVG/1.1/DTD/svg11.dtd">
<svg xmlns="http://www.w3.org/2000/svg" xmlns:xlink="http://www.w3.org/1999/xlink" version="1.1" viewBox="0 0 512 512" enable-background="new 0 0 512 512" width="512px" height="512px">
  <g>
    <g>
      <path d="m500.2,475l-79.3-280.8c-2.5-8.8-10.5-14.9-19.6-14.9h-35c-9.1,0-17.4,5-21.5,13.1-28.8,55.8-88.8,151.6-88.8,151.6s-60-95.8-88.8-151.5c-4.2-8.1-12.5-13.1-21.5-13.1h-35c-9.1,0-17.2,6.1-19.6,14.9l-79.3,280.7c-2.3,8.1-0.2,26 20,26h448.5c18.8,0 22.2-17.9 19.9-26z" fill="#006DF0"/>
      <path d="m256,266.8c0,0 50.4-80.2 71.8-136.3 6.1-11.4 9.5-24.4 9.5-38.2 0-44.9-36.4-81.3-81.3-81.3s-81.3,36.4-81.3,81.3c0,13.8 3.4,26.8 9.5,38.2 21.4,56.1 71.8,136.3 71.8,136.3zm0-205.8c17.3,0 31.3,14 31.3,31.3s-14,31.3-31.3,31.3-31.3-14-31.3-31.3 14-31.3 31.3-31.3z" fill="#006DF0"/>
    </g>
  </g>
</svg>
