<?xml version="1.0"?>
<svg xmlns="http://www.w3.org/2000/svg" height="512px" viewBox="-14 0 512 512.001" width="512px"><path d="m444.25 15c0-8.285156-6.714844-15-15-15h-185c-8.28125 0-15 6.714844-15 15v49h215zm0 0" fill="#FFFFFF"/><path d="m199 87.902344c0-12.046875-9.589844-21.902344-21.3125-21.902344h-81.375c-11.722656 0-21.3125 9.855469-21.3125 21.902344v402.195312c0 12.046875 9.59375 21.902344 21.3125 21.902344h81.375c11.722656 0 21.3125-9.855469 21.3125-21.902344zm0 0" fill="#FFFFFF"/><path d="m0 109v360c0 8.285156 6.714844 15 15 15h30v-390h-30c-8.285156 0-15 6.714844-15 15zm0 0" fill="#FFFFFF"/><path d="m296.714844 184.902344h120v30h-120zm0 0" fill="#FFFFFF"/><path d="m469.214844 94.902344h-240v390h240c8.285156 0 15-6.714844 15-15v-360c0-8.28125-6.714844-15-15-15zm-177.5 330.003906h-10c-8.285156 0-15-6.71875-15-15 0-8.285156 6.714844-15 15-15h10c8.285156 0 15 6.714844 15 15 0 8.28125-6.714844 15-15 15zm0-60h-10c-8.285156 0-15-6.71875-15-15 0-8.285156 6.714844-15 15-15h10c8.285156 0 15 6.714844 15 15 0 8.28125-6.714844 15-15 15zm0-60.003906h-10c-8.285156 0-15-6.714844-15-15 0-8.28125 6.714844-15 15-15h10c8.285156 0 15 6.71875 15 15 0 8.285156-6.714844 15-15 15zm70 120.003906h-10c-8.285156 0-15-6.71875-15-15 0-8.285156 6.714844-15 15-15h10c8.285156 0 15 6.714844 15 15 0 8.28125-6.714844 15-15 15zm0-60h-10c-8.285156 0-15-6.71875-15-15 0-8.285156 6.714844-15 15-15h10c8.285156 0 15 6.714844 15 15 0 8.28125-6.714844 15-15 15zm0-60.003906h-10c-8.285156 0-15-6.714844-15-15 0-8.28125 6.714844-15 15-15h10c8.285156 0 15 6.71875 15 15 0 8.285156-6.714844 15-15 15zm70 120.003906h-10c-8.285156 0-15-6.71875-15-15 0-8.285156 6.714844-15 15-15h10c8.285156 0 15 6.714844 15 15 0 8.28125-6.714844 15-15 15zm0-60h-10c-8.285156 0-15-6.71875-15-15 0-8.285156 6.714844-15 15-15h10c8.285156 0 15 6.714844 15 15 0 8.28125-6.714844 15-15 15zm0-60.003906h-10c-8.285156 0-15-6.714844-15-15 0-8.28125 6.714844-15 15-15h10c8.285156 0 15 6.71875 15 15 0 8.285156-6.714844 15-15 15zm15-75c0 8.285156-6.714844 15-15 15h-150c-8.285156 0-15-6.714844-15-15v-60c0-8.28125 6.714844-15 15-15h150c8.285156 0 15 6.71875 15 15zm0 0" fill="#FFFFFF"/></svg>
